<svg xmlns="http://www.w3.org/2000/svg" width="63" height="63" viewBox="0 0 63 63" fill="none">
  <g clip-path="url(#clip0_0_172)">
    <path d="M61.8701 31.1174C61.8679 31.4473 61.6772 31.7474 61.379 31.8883L27.1399 48.1286C26.7992 49.5417 25.8126 50.7795 24.3701 51.3772C21.9754 52.369 19.2201 51.2278 18.2281 48.8331C15.8892 43.1862 14.7032 37.224 14.7032 31.1119C14.7032 24.9999 15.8891 19.0377 18.2281 13.3908C18.471 12.8044 18.8195 12.2933 19.2427 11.8701C20.5477 10.5652 22.5618 10.0976 24.3701 10.8468C25.5867 11.3508 26.479 12.3104 26.9333 13.4463L61.389 30.3403C61.6852 30.4855 61.8722 30.7875 61.8701 31.1174ZM31.0339 44.3794L34.6625 42.6581C34.642 42.0095 34.3344 41.3958 33.8073 40.9913C33.343 40.6352 32.7679 40.481 32.1878 40.5573C31.6077 40.6337 31.0925 40.9312 30.7359 41.3956C30.3798 41.8597 30.2256 42.4348 30.302 43.0149C30.3724 43.5494 30.6309 44.0288 31.0339 44.3794ZM23.7124 12.4348C22.1932 11.8055 20.4451 12.5296 19.8162 14.0487C15.2584 25.0521 15.2584 37.1718 19.8161 48.1753C20.1209 48.9112 20.694 49.4843 21.43 49.7892C22.1659 50.094 22.9764 50.094 23.7123 49.7892C24.4482 49.4843 25.0213 48.9112 25.3261 48.1753C25.6309 47.4394 25.6309 46.6289 25.3261 45.893C23.3751 41.1831 22.386 36.2101 22.386 31.112C22.386 26.0139 23.3752 21.0409 25.3261 16.3309C25.9555 14.8118 25.2315 13.0639 23.7124 12.4348ZM47.5385 25.4635C47.4849 25.5198 47.433 25.5781 47.3852 25.6402C47.0291 26.1043 46.875 26.6794 46.9514 27.2594C47.0277 27.8395 47.3255 28.3552 47.7896 28.7113C48.7478 29.4465 50.1252 29.2653 50.8609 28.3069C51.0878 28.0112 51.2318 27.6645 51.2868 27.3012L47.5385 25.4635ZM52.8723 28.0788C52.7374 28.5361 52.5195 28.9687 52.2244 29.3533C50.9126 31.0641 48.4534 31.3871 46.7432 30.0749C45.9148 29.4392 45.3836 28.5191 45.2473 27.4838C45.116 26.4866 45.3672 25.4981 45.954 24.6865L41.2145 22.3626L40.8913 24.8175C40.8293 25.2879 40.3976 25.6194 39.9271 25.5573C39.4565 25.4954 39.1254 25.0637 39.1873 24.5931L39.5861 21.5641L27.2596 15.5202C27.2252 16.0127 27.1134 16.5078 26.9144 16.9885C23.1419 26.0962 23.1419 36.1275 26.9144 45.235C27.0456 45.5517 27.1384 45.8749 27.197 46.1993L29.4045 45.1522C28.971 44.6051 28.6916 43.9493 28.5981 43.2393C28.4617 42.2041 28.7368 41.1776 29.3725 40.3493C29.479 40.2105 29.5932 40.0803 29.7149 39.9586C30.3194 39.3541 31.1017 38.9668 31.9635 38.8532C32.9989 38.7169 34.0251 38.992 34.8537 39.6277C35.5974 40.1984 36.0949 41.0027 36.2898 41.8863L46.5369 37.0259L46.132 36.0484C45.9949 35.7174 46.0799 35.3499 46.3183 35.1115C46.3958 35.034 46.4895 34.9702 46.5971 34.9256C47.0355 34.7439 47.5383 34.9523 47.7199 35.3907L48.0918 36.2883L59.0323 31.099L52.8723 28.0788Z" fill="#363853"/>
    <path d="M21.3733 39.3603C21.3744 39.365 21.377 39.3777 21.3779 39.3825C21.4709 39.8476 21.1693 40.2991 20.7042 40.3925C20.2398 40.4856 19.7876 40.1845 19.6928 39.7208C19.6304 39.4257 19.7276 39.1334 19.9265 38.9346C20.039 38.822 20.1841 38.7394 20.351 38.7032C20.8148 38.6023 21.2725 38.8966 21.3733 39.3603Z" fill="#363853"/>
    <path d="M21.9588 41.794C22.4049 43.4245 22.9592 45.0434 23.6063 46.6057C23.788 47.0443 23.5794 47.547 23.1411 47.7285C22.7026 47.9102 22.2 47.7019 22.0184 47.2634C21.3438 45.6348 20.7661 43.9471 20.3011 42.2476C20.2167 41.939 20.3116 41.6236 20.5227 41.4125C20.6248 41.3104 20.754 41.2327 20.9031 41.1919C21.3609 41.0667 21.8336 41.3362 21.9588 41.794Z" fill="#363853"/>
    <path d="M42.3514 35.4321C42.2469 35.5684 42.1326 35.6988 42.0118 35.8196C40.6313 37.2 38.4209 37.3437 36.8703 36.1538C35.1602 34.8416 34.8364 32.3828 36.1486 30.6727C36.2531 30.5363 36.3674 30.406 36.4882 30.2852C37.8686 28.9048 40.079 28.7611 41.6298 29.9511C43.3398 31.2633 43.6635 33.722 42.3514 35.4321ZM40.5835 31.3146C39.7145 30.6478 38.4764 30.7277 37.7036 31.5006C37.6356 31.5685 37.5712 31.642 37.5122 31.719C36.7769 32.6773 36.9584 34.0549 37.9166 34.7903C38.7856 35.457 40.0235 35.377 40.7964 34.6042C40.8643 34.5363 40.9288 34.4628 40.9878 34.3858C41.7229 33.4275 41.5416 32.0498 40.5835 31.3146Z" fill="#363853"/>
    <path d="M34.6346 28.0315C34.53 28.1679 34.4158 28.2982 34.295 28.419C32.9145 29.7995 30.7041 29.9432 29.1534 28.7532C28.3249 28.1176 27.7937 27.1974 27.6574 26.1621C27.521 25.1269 27.796 24.1005 28.4316 23.272C28.5362 23.1358 28.6505 23.0055 28.7712 22.8848C30.1516 21.5044 32.3621 21.3606 33.9129 22.5506C35.623 23.8626 35.9466 26.3214 34.6346 28.0315ZM32.8667 23.914C31.9976 23.2472 30.7595 23.3272 29.9867 24.1C29.9188 24.1679 29.8544 24.2414 29.7954 24.3183C29.4393 24.7826 29.2852 25.3577 29.3615 25.9377C29.4378 26.5178 29.7355 27.0334 30.1998 27.3896C31.0687 28.0564 32.3068 27.9764 33.0796 27.2036C33.1475 27.1357 33.212 27.0622 33.271 26.9852C34.0062 26.0271 33.8248 24.6493 32.8667 23.914Z" fill="#363853"/>
    <path d="M33.1442 34.5568L31.5224 36.6705C31.234 37.0472 30.694 37.1181 30.3175 36.8292C29.9409 36.5403 29.8699 36.0008 30.1588 35.6243L31.7806 33.5107C31.8039 33.4802 31.829 33.4517 31.8554 33.4253C32.1556 33.125 32.6394 33.0865 32.9854 33.352C33.362 33.6408 33.4331 34.1803 33.1442 34.5568Z" fill="#363853"/>
    <path d="M27.7126 31.0196L28.801 32.4378C29.0899 32.8144 29.0191 33.3539 28.6424 33.6427C28.2658 33.9316 27.7264 33.8607 27.4375 33.4841L26.3492 32.0659C26.0836 31.7198 26.1221 31.2361 26.4224 30.9358C26.4489 30.9093 26.4773 30.8843 26.5078 30.861C26.8843 30.5721 27.4237 30.6431 27.7126 31.0196Z" fill="#363853"/>
  </g>
  <defs>
    <clipPath id="clip0_0_172">
      <rect width="44" height="44" fill="white" transform="matrix(0.707107 -0.707107 -0.707107 -0.707107 31.1128 62.2253)"/>
    </clipPath>
  </defs>
</svg>
