<svg xmlns="http://www.w3.org/2000/svg" width="44" height="45" viewBox="0 0 44 45" fill="none">
  <g clip-path="url(#clip0_0_228)">
    <path d="M31.158 15.5309L30.6872 13.9994C30.0892 12.2596 28.1775 11.3285 26.4173 11.9196C25.4271 12.2521 24.6495 13.0207 24.3131 13.9994L23.8423 15.5309C23.4461 16.8226 23.363 18.1882 23.5996 19.5174C23.8154 20.6366 24.5342 21.5981 25.5532 22.1304L25.0259 33.7805C24.9553 34.4308 25.1687 35.0799 25.6126 35.565C26.5671 36.597 28.1874 36.6688 29.2315 35.7253C29.2879 35.6743 29.342 35.6208 29.3936 35.565C29.8276 35.0937 30.0406 34.4636 29.9803 33.8291L29.4501 22.129C30.4677 21.5963 31.1853 20.6355 31.4008 19.5174C31.6373 18.1882 31.5542 16.8226 31.158 15.5309ZM29.9561 19.2652C29.7973 20.0692 29.2176 20.7289 28.4344 20.9968C28.1372 21.1073 27.9457 21.3943 27.96 21.7079L28.5173 33.9436C28.543 34.1836 28.4628 34.4229 28.2973 34.6003C27.8557 35.0324 27.1446 35.0324 26.703 34.6003C26.5292 34.4086 26.4503 34.1505 26.4874 33.8958L27.0404 21.7079C27.0547 21.3943 26.8632 21.1073 26.5659 20.9968C25.7827 20.7289 25.203 20.0692 25.0442 19.2652C24.8481 18.1617 24.9172 17.028 25.2459 15.9557L25.7167 14.4234C26.081 13.4499 27.1747 12.9525 28.1598 13.3126C28.6806 13.503 29.091 13.9088 29.2836 14.4234L29.7544 15.9557C30.0828 17.028 30.1519 18.1617 29.9561 19.2652Z" fill="#363853"/>
    <path d="M19.8 11.7458C19.395 11.7458 19.0667 12.0704 19.0667 12.4707V18.694L17.0815 20.6561C16.9347 20.8007 16.8566 21.0001 16.8667 21.2048L17.5083 33.8892C17.5236 34.1627 17.4232 34.4303 17.2311 34.6278C16.8297 35.0281 16.176 35.031 15.7709 34.6341C15.7687 34.632 15.7666 34.6299 15.7645 34.6278C15.5723 34.4303 15.472 34.1627 15.4873 33.8892L16.1333 21.2048C16.1436 21.0002 16.0658 20.8009 15.9192 20.6561L13.9333 18.694V12.4707C13.9333 12.0704 13.605 11.7458 13.2 11.7458C12.795 11.7458 12.4667 12.0704 12.4667 12.4707V18.9941C12.4667 19.1863 12.544 19.3706 12.6815 19.5065L14.6513 21.4541L14.0257 33.8189C13.9592 35.1695 15.013 36.3178 16.3795 36.3836C17.7459 36.4494 18.9077 35.4078 18.9743 34.0572C18.9782 33.9778 18.9782 33.8983 18.9743 33.819L18.3487 21.4542L20.3185 19.5066C20.456 19.3707 20.5333 19.1864 20.5333 18.9942V12.4708C20.5333 12.0704 20.205 11.7458 19.8 11.7458Z" fill="#363853"/>
    <path d="M15.4 11.7458C14.995 11.7458 14.6667 12.0704 14.6667 12.4707V18.2693C14.6667 18.6695 14.995 18.9941 15.4 18.9941C15.805 18.9941 16.1333 18.6695 16.1333 18.2693V12.4707C16.1333 12.0704 15.805 11.7458 15.4 11.7458Z" fill="#363853"/>
    <path d="M17.6 11.7458C17.195 11.7458 16.8667 12.0704 16.8667 12.4707V18.2693C16.8667 18.6695 17.195 18.9941 17.6 18.9941C18.005 18.9941 18.3333 18.6695 18.3333 18.2693V12.4707C18.3333 12.0704 18.005 11.7458 17.6 11.7458Z" fill="#363853"/>
    <path d="M22 0.873535C9.84977 0.873535 0 10.609 0 22.6182C0 34.6275 9.84977 44.3629 22 44.3629C34.1502 44.3629 44 34.6275 44 22.6182C43.9863 10.6146 34.1446 0.887126 22 0.873535ZM22 42.9133C10.6597 42.9133 1.46667 33.8269 1.46667 22.6182C1.46667 11.4096 10.6597 2.32318 22 2.32318C33.3403 2.32318 42.5333 11.4096 42.5333 22.6182C42.5204 33.8215 33.3349 42.9005 22 42.9133Z" fill="#363853"/>
    <path d="M24.3804 36.2246C24.3411 35.826 23.9824 35.5344 23.5792 35.5733C23.5698 35.5742 23.5604 35.5753 23.5509 35.5766L23.5539 35.5758C22.5214 35.6944 21.4784 35.6944 20.446 35.5758C20.0436 35.5292 19.6792 35.8139 19.632 36.2118C19.5848 36.6098 19.8727 36.9701 20.2751 37.0168C21.4201 37.1491 22.5768 37.1491 23.7218 37.0168C24.1248 36.978 24.4197 36.6233 24.3804 36.2246Z" fill="#363853"/>
    <path d="M33.2202 13.2781C32.9599 12.9714 32.4974 12.9313 32.1871 13.1886C32.1861 13.1894 32.1851 13.1903 32.184 13.1911C31.8744 13.4491 31.835 13.9063 32.096 14.2124C36.5175 19.4003 36.1793 27.0716 31.3179 31.8597C31.031 32.1423 31.0302 32.6013 31.3161 32.8849C31.602 33.1685 32.0665 33.1693 32.3534 32.8867C37.756 27.5672 38.1327 19.0431 33.2202 13.2781Z" fill="#363853"/>
    <path d="M17.0859 10.4551C17.0854 10.4551 17.085 10.4541 17.0845 10.4541C17.0838 10.4541 17.083 10.4551 17.0822 10.4551H17.0859Z" fill="#363853"/>
    <path d="M25.4592 8.52689C22.5932 7.848 19.5874 8.03048 16.8271 9.05094C16.4479 9.19182 16.2563 9.60987 16.3988 9.98451C16.5062 10.2669 16.7794 10.4538 17.0846 10.4541C17.1723 10.4536 17.2592 10.4378 17.3411 10.4071C19.827 9.48828 22.5337 9.3242 25.1145 9.93595C25.5082 10.03 25.9045 9.79089 25.9996 9.40175C26.0948 9.01261 25.8529 8.62094 25.4592 8.52689Z" fill="#363853"/>
    <path d="M12.6492 31.8234C10.1771 29.3841 8.79151 26.0709 8.79994 22.6182C8.7927 19.8597 9.67674 17.1709 11.3233 14.9437C11.5667 14.6237 11.5015 14.1694 11.1778 13.9288C10.854 13.6883 10.3943 13.7527 10.1509 14.0727C10.1466 14.0784 10.1424 14.0841 10.1383 14.0899C5.89842 19.8512 6.5223 27.8035 11.6101 32.8498C11.8968 33.1334 12.3619 33.1335 12.6488 32.8501C12.9358 32.5667 12.9359 32.107 12.6492 31.8234Z" fill="#363853"/>
  </g>
  <defs>
    <clipPath id="clip0_0_228">
      <rect width="44" height="43.4894" fill="white" transform="translate(0 0.873535)"/>
    </clipPath>
  </defs>
</svg>